<svg width="78" height="78" viewBox="0 0 78 78" fill="none" xmlns="http://www.w3.org/2000/svg">
<path d="M1.36035 38.4241C1.36035 17.9895 17.9258 1.42407 38.3604 1.42407C58.7949 1.42407 75.3604 17.9895 75.3604 38.4241C75.3604 58.8586 58.7949 75.4241 38.3604 75.4241C17.9258 75.4241 1.36035 58.8586 1.36035 38.4241Z" fill="black" fill-opacity="0.5"/>
<path d="M63.6101 47.2044L66.7877 48.587L66.5803 49.0636L63.8703 47.8845L63.181 49.4687L62.7134 49.2653L63.6101 47.2044ZM61.5503 54.7756C61.7117 54.8903 61.8699 54.9725 62.025 55.022C62.1809 55.0762 62.3281 55.0999 62.4666 55.093C62.6077 55.0881 62.7369 55.0545 62.8542 54.9921C62.9696 54.9324 63.0674 54.8461 63.1478 54.7331C63.2281 54.6201 63.2775 54.4994 63.2961 54.3708C63.3154 54.2469 63.3045 54.1197 63.2636 53.9893C63.2227 53.859 63.151 53.7291 63.0487 53.5996C62.9491 53.4721 62.8186 53.3509 62.6572 53.2361C62.4958 53.1214 62.3372 53.0369 62.1813 52.9828C62.0262 52.9332 61.8791 52.9095 61.7398 52.9117C61.6013 52.9185 61.4744 52.9518 61.359 53.0115C61.2418 53.0739 61.143 53.1616 61.0626 53.2745C60.9823 53.3875 60.9325 53.506 60.9132 53.6299C60.8946 53.7585 60.9058 53.888 60.9468 54.0183C60.9858 54.1514 61.0551 54.2817 61.1548 54.4092C61.2571 54.5387 61.3889 54.6608 61.5503 54.7756ZM61.2514 55.213C61.0308 55.0561 60.8515 54.884 60.7134 54.6967C60.5779 54.5113 60.4839 54.3189 60.4313 54.1195C60.3795 53.9247 60.3713 53.7285 60.4065 53.5308C60.4418 53.3332 60.5235 53.1443 60.6517 52.9641C60.7779 52.7866 60.9272 52.6477 61.0997 52.5476C61.2748 52.4494 61.4629 52.3928 61.6639 52.3778C61.8649 52.3629 62.0752 52.3889 62.2948 52.456C62.5151 52.5276 62.7356 52.6419 62.9561 52.7987C63.1767 52.9556 63.3547 53.1267 63.4901 53.3121C63.6282 53.4994 63.7232 53.6905 63.775 53.8853C63.8276 54.0847 63.8363 54.2832 63.801 54.4808C63.7657 54.6785 63.685 54.8661 63.5587 55.0436C63.4306 55.2238 63.2789 55.363 63.1038 55.4612C62.9314 55.5613 62.7446 55.6188 62.5436 55.6338C62.3426 55.6488 62.1319 55.6205 61.9116 55.5488C61.692 55.4818 61.4719 55.3698 61.2514 55.213ZM58.2673 59.1725C58.324 59.2057 58.3876 59.2416 58.4581 59.2803C58.5286 59.3189 58.5991 59.3575 58.6696 59.3961C58.7376 59.437 58.8012 59.4729 58.8604 59.5039C58.9193 59.5396 58.9647 59.5676 58.9963 59.5879C58.9793 59.5544 58.9561 59.5064 58.9265 59.4442C58.8992 59.3844 58.8686 59.3186 58.8349 59.2468C58.8033 59.1774 58.7708 59.1045 58.7373 59.028C58.7013 58.9538 58.6709 58.8856 58.646 58.8236L58.3207 58.0501L57.5273 58.7669L58.2673 59.1725ZM56.3301 58.1139L57.0977 58.5279L58.1262 57.5986L57.7883 56.7963L58.1887 56.4346L59.5863 59.8421L59.1786 60.2105L55.9187 58.4857L56.3301 58.1139ZM52.6993 62.9259C52.7889 63.0838 52.8889 63.2168 52.9995 63.3248C53.1117 63.4357 53.2363 63.515 53.3732 63.5625C53.5073 63.6117 53.6536 63.6255 53.8121 63.6039C53.9677 63.584 54.1346 63.5235 54.3126 63.4226L54.6829 63.2127L53.4719 61.0766L53.1016 61.2866C52.9236 61.3875 52.7861 61.4996 52.689 61.6229C52.5891 61.7478 52.5258 61.8804 52.4992 62.0208C52.4696 62.1627 52.4728 62.3089 52.5087 62.4592C52.5463 62.6124 52.6098 62.768 52.6993 62.9259ZM52.2385 63.1872C52.0872 62.9202 51.998 62.6691 51.9709 62.4341C51.941 62.2006 51.9585 61.9839 52.0235 61.784C52.0901 61.5869 52.1961 61.4092 52.3415 61.2508C52.4841 61.0941 52.6544 60.9596 52.8525 60.8473L53.6751 60.381L55.3842 63.3956L54.5616 63.8619C54.3606 63.9758 54.1549 64.0546 53.9443 64.098C53.7309 64.1432 53.5231 64.1414 53.3211 64.0929C53.1206 64.0471 52.928 63.9515 52.743 63.806C52.5581 63.6604 52.3899 63.4542 52.2385 63.1872ZM43.3091 65.6047C43.2474 65.2537 43.3126 64.9674 43.5049 64.7459C43.6977 64.5277 43.9956 64.3831 44.3987 64.3122C44.5189 64.291 44.6415 64.2829 44.7663 64.2877C44.8912 64.2926 45.0131 64.3097 45.1322 64.339C45.2481 64.3688 45.3575 64.4099 45.4605 64.4622C45.5641 64.5177 45.6529 64.5841 45.7268 64.6616L45.3951 65.0618C45.2677 64.9468 45.1234 64.87 44.9625 64.8313C44.8021 64.7958 44.6439 64.7918 44.4879 64.8193C44.2148 64.8673 44.0317 64.9498 43.9383 65.0668C43.8423 65.1875 43.8097 65.3357 43.8406 65.5112C43.8714 65.6867 43.9525 65.8048 44.0839 65.8655C44.2157 65.9294 44.3711 65.9457 44.5498 65.9142L44.8668 65.8584L44.9543 66.3558L44.6422 66.4107C44.4829 66.4387 44.3707 66.5053 44.3054 66.6107C44.2402 66.716 44.219 66.8336 44.2419 66.9636C44.2505 67.0124 44.2694 67.0627 44.2986 67.1145C44.3278 67.1663 44.3708 67.2107 44.4276 67.2476C44.4843 67.2846 44.5575 67.3102 44.6472 67.3246C44.7342 67.3428 44.8411 67.3408 44.9678 67.3185C45.1043 67.2944 45.223 67.2451 45.3238 67.1704C45.4213 67.0963 45.5084 67.0005 45.5849 66.8832L46.0287 67.1771C45.9087 67.3523 45.7695 67.4941 45.6109 67.6024C45.4497 67.7146 45.2618 67.7895 45.0473 67.8272C44.888 67.8553 44.7332 67.8607 44.5827 67.8436C44.4328 67.8298 44.299 67.793 44.1813 67.7333C44.0635 67.6736 43.9635 67.5907 43.8811 67.4845C43.7994 67.3816 43.7453 67.2554 43.719 67.1059C43.683 66.9011 43.6956 66.7347 43.7568 66.6067C43.8148 66.4792 43.8966 66.3726 44.0022 66.287C43.8317 66.2701 43.683 66.2058 43.5561 66.0941C43.4292 65.9824 43.3469 65.8192 43.3091 65.6047ZM38.1161 66.0627C38.1101 66.2706 38.1749 66.4243 38.3107 66.524C38.4464 66.627 38.6379 66.6822 38.8853 66.6894C39.1394 66.6968 39.3404 66.6514 39.4886 66.5534C39.6366 66.4587 39.7136 66.309 39.7196 66.1045C39.7221 66.0187 39.7079 65.9374 39.6772 65.8606C39.6464 65.7838 39.5989 65.7147 39.5346 65.6534C39.467 65.5953 39.3842 65.5466 39.2863 65.5075C39.1883 65.4716 39.0749 65.4518 38.9463 65.448C38.6824 65.4403 38.4795 65.4906 38.3377 65.5987C38.1958 65.7101 38.1219 65.8648 38.1161 66.0627ZM37.5913 66.0573C37.5968 65.8693 37.6363 65.7037 37.7098 65.5606C37.7833 65.4174 37.8825 65.2998 38.0073 65.2077C38.1322 65.1156 38.2778 65.0472 38.4442 65.0025C38.6106 64.9579 38.7895 64.9383 38.9808 64.9439C39.1622 64.9492 39.3314 64.9789 39.4883 65.033C39.6451 65.0904 39.7813 65.1769 39.8968 65.2925C40.009 65.408 40.0971 65.5542 40.1613 65.7311C40.2222 65.9078 40.2491 66.1183 40.242 66.3624C40.2376 66.5142 40.2181 66.6721 40.1836 66.8362C40.1491 67.0002 40.0966 67.1605 40.026 67.3169C39.9521 67.4732 39.8586 67.6224 39.7455 67.7644C39.6291 67.9063 39.4901 68.031 39.3285 68.1385C39.1668 68.2461 38.9795 68.3314 38.7663 68.3945C38.5499 68.4576 38.3046 68.49 38.0305 68.492L38.0448 68.0021C38.4444 67.9972 38.7805 67.9063 39.0531 67.7293C39.3224 67.5523 39.5185 67.284 39.6412 66.9244C39.5164 67.0165 39.3857 67.082 39.2492 67.1209C39.1093 67.1631 38.9337 67.1811 38.7226 67.1749C38.5643 67.1703 38.4165 67.1429 38.2793 67.0927C38.1387 67.0457 38.0169 66.9761 37.9139 66.8839C37.811 66.7918 37.7301 66.6772 37.6714 66.5401C37.6126 66.403 37.5859 66.2421 37.5913 66.0573ZM32.327 65.9829C32.2844 66.1594 32.2608 66.3269 32.2565 66.4854C32.2481 66.6463 32.264 66.7911 32.3042 66.9197C32.3413 67.0475 32.4049 67.1562 32.4953 67.246C32.5824 67.335 32.6998 67.3973 32.8473 67.433C32.9949 67.4687 33.1278 67.4668 33.2459 67.4275C33.3633 67.3914 33.4693 67.3253 33.5638 67.2293C33.6543 67.1358 33.7326 67.0155 33.7987 66.8685C33.8641 66.7247 33.9181 66.5646 33.9607 66.3882C34.0034 66.2117 34.0289 66.043 34.0373 65.8821C34.0416 65.7235 34.0253 65.5804 33.9883 65.4526C33.9481 65.324 33.8844 65.2153 33.7973 65.1263C33.7069 65.0365 33.588 64.9738 33.4404 64.9381C33.2928 64.9024 33.1604 64.9027 33.043 64.9388C32.9248 64.9781 32.8205 65.0446 32.7299 65.1381C32.6354 65.2341 32.5555 65.354 32.4902 65.4978C32.4241 65.6448 32.3697 65.8065 32.327 65.9829ZM31.8146 65.8692C31.8767 65.6126 31.9626 65.3838 32.0723 65.1828C32.1812 64.9851 32.3105 64.8228 32.46 64.696C32.6095 64.5691 32.7781 64.4826 32.9659 64.4363C33.1496 64.3924 33.3506 64.3969 33.5687 64.4496C33.7868 64.5024 33.9692 64.5906 34.1159 64.7144C34.2585 64.8405 34.3678 64.9926 34.4436 65.1705C34.5154 65.3509 34.5546 65.5539 34.5612 65.7796C34.5645 66.0045 34.5352 66.2452 34.4731 66.5019C34.4118 66.7553 34.3267 66.9809 34.2178 67.1786C34.1081 67.3796 33.9785 67.5435 33.8289 67.6703C33.6794 67.7972 33.5124 67.8841 33.3279 67.9312C33.1401 67.9774 32.9372 67.9742 32.719 67.9215C32.5009 67.8687 32.3205 67.7793 32.1778 67.6531C32.0312 67.5293 31.922 67.3773 31.8501 67.1969C31.7743 67.019 31.7351 66.816 31.7325 66.5879C31.726 66.3622 31.7534 66.1227 31.8146 65.8692ZM27.1159 65.1708C27.0856 65.2367 27.0708 65.3044 27.0716 65.3738C27.0681 65.4448 27.0784 65.5131 27.1027 65.5788C27.1241 65.6431 27.1592 65.701 27.2082 65.7525C27.2527 65.8057 27.3095 65.8481 27.3785 65.8798C27.4475 65.9115 27.5181 65.9276 27.5905 65.9282C27.6585 65.9304 27.7254 65.9193 27.791 65.895C27.8537 65.8693 27.9123 65.8327 27.9668 65.7851C28.017 65.7391 28.0572 65.6832 28.0875 65.6172C28.1192 65.5482 28.1368 65.4782 28.1404 65.4072C28.141 65.3349 28.1306 65.2665 28.1093 65.2022C28.085 65.1366 28.0505 65.0772 28.0059 65.024C27.957 64.9725 27.898 64.9308 27.829 64.8992C27.7601 64.8675 27.6916 64.8505 27.6236 64.8483C27.5512 64.8478 27.4837 64.8603 27.421 64.886C27.3554 64.9103 27.2968 64.947 27.2452 64.9959C27.1907 65.0435 27.1476 65.1018 27.1159 65.1708ZM26.711 64.9848C26.7689 64.8588 26.8458 64.7507 26.9418 64.6604C27.0364 64.5731 27.1427 64.5076 27.2609 64.4638C27.3791 64.42 27.5025 64.4004 27.6311 64.4051C27.7597 64.4097 27.887 64.4409 28.013 64.4988C28.139 64.5567 28.2456 64.6329 28.3329 64.7275C28.4202 64.8221 28.4857 64.9285 28.5295 65.0466C28.5702 65.1634 28.5898 65.2868 28.5882 65.4168C28.5822 65.5485 28.5503 65.6773 28.4924 65.8032C28.4359 65.9262 28.3604 66.0313 28.2658 66.1186C28.1682 66.2045 28.0625 66.2685 27.9487 66.3107C27.8305 66.3544 27.7071 66.374 27.5785 66.3694C27.4485 66.3678 27.3205 66.338 27.1945 66.2802C27.0686 66.2223 26.9627 66.1446 26.8767 66.047C26.7894 65.9524 26.7239 65.846 26.6801 65.7278C26.635 65.6127 26.6147 65.4908 26.6193 65.3621C26.624 65.2335 26.6545 65.1077 26.711 64.9848ZM21.0589 58.281L21.4547 58.6622L19.9168 61.9925L19.5104 61.601L20.5217 59.5094C20.5441 59.4623 20.57 59.4093 20.5992 59.3504C20.6262 59.2939 20.6543 59.2385 20.6836 59.1843C20.7106 59.1278 20.7376 59.0759 20.7648 59.0287C20.7872 58.9816 20.8064 58.9451 20.8222 58.9191C20.7969 58.9359 20.7623 58.9576 20.7184 58.9841C20.6699 59.0107 20.6191 59.0396 20.566 59.0709C20.5105 59.1 20.4539 59.1302 20.3961 59.1616C20.3384 59.1931 20.2864 59.2209 20.2401 59.2451L18.1984 60.3371L17.7991 59.9524L21.0589 58.281ZM18.1215 55.3391L15.3278 57.3893L15.0202 56.9702L17.814 54.92L18.1215 55.3391ZM15.9886 52.3007L12.8819 53.836L11.8927 51.8344L12.3454 51.6107L13.1043 53.1463L13.8721 52.7668L13.4312 51.8748L13.8839 51.6511L14.3248 52.5431L15.3056 52.0584L14.5138 50.4562L14.9665 50.2325L15.9886 52.3007ZM13.0654 44.7145L13.187 45.225L11.1353 46.2685C11.108 46.2818 11.0745 46.2982 11.0351 46.3178C10.9925 46.3381 10.9514 46.3581 10.912 46.3777C10.8693 46.398 10.8299 46.4176 10.7936 46.4364C10.7566 46.452 10.7289 46.4637 10.7104 46.4715C10.7304 46.4701 10.7609 46.4697 10.8017 46.4701C10.8417 46.4674 10.8854 46.4654 10.9326 46.4644C10.9766 46.464 11.0223 46.4634 11.0695 46.4623C11.1136 46.462 11.1508 46.4616 11.1812 46.4611L13.4887 46.4915L13.608 46.9924L10.4011 48.4841L10.2795 47.9736L12.3116 47.062C12.3366 47.0527 12.3675 47.0402 12.4045 47.0246C12.4407 47.0058 12.479 46.9882 12.5192 46.9719C12.5586 46.9523 12.5984 46.9343 12.6386 46.918C12.6756 46.9024 12.7082 46.8895 12.7363 46.8794C12.7067 46.8831 12.6718 46.8863 12.6318 46.8891C12.5909 46.8886 12.5485 46.8885 12.5045 46.8889C12.4605 46.8892 12.4184 46.8907 12.3784 46.8935C12.3375 46.893 12.3035 46.8926 12.2763 46.8923L10.0144 46.8612L9.91119 46.4278L11.9619 45.3591C12.0038 45.3355 12.0614 45.3066 12.1346 45.2722C12.2078 45.2377 12.2738 45.2085 12.3325 45.1843C12.2652 45.1867 12.1915 45.1907 12.1114 45.1962C12.0281 45.2025 11.9648 45.2074 11.9215 45.2109L9.64731 45.3202L9.53029 44.829L13.0654 44.7145ZM10.5555 35.995C10.6605 36.0061 10.7553 36.036 10.8397 36.0847C10.9246 36.1302 10.9978 36.191 11.0594 36.2672C11.1182 36.3397 11.1624 36.424 11.1921 36.5201C11.2188 36.6125 11.2269 36.7096 11.2161 36.8113C11.2051 36.9164 11.1768 37.0113 11.1314 37.0961C11.0826 37.1806 11.0218 37.2538 10.9489 37.3158C10.8731 37.3742 10.7888 37.4184 10.696 37.4485C10.6036 37.4752 10.5049 37.4831 10.3998 37.472C10.2981 37.4613 10.2032 37.433 10.1151 37.3872C10.0273 37.3382 9.95408 37.2773 9.89535 37.2048C9.83369 37.1286 9.78784 37.0441 9.75779 36.9513C9.72775 36.8586 9.71826 36.7597 9.72933 36.6546C9.74005 36.5529 9.76978 36.4598 9.8185 36.3753C9.86758 36.2876 9.93003 36.2145 10.0059 36.1561C10.0788 36.0941 10.1631 36.0499 10.2588 36.0235C10.3548 35.9938 10.4537 35.9843 10.5555 35.995ZM13.7648 29.7157L10.6128 28.2756L10.8288 27.8028L13.517 29.031L14.235 27.4595L14.6988 27.6714L13.7648 29.7157ZM15.9499 22.181C15.7902 22.064 15.6332 21.9796 15.4788 21.9278C15.3237 21.8714 15.1769 21.8456 15.0383 21.8505C14.8971 21.8534 14.7674 21.8852 14.6492 21.9459C14.5331 22.0039 14.434 22.0888 14.352 22.2006C14.2701 22.3124 14.2189 22.4325 14.1986 22.5608C14.1775 22.6844 14.1865 22.8117 14.2256 22.9427C14.2646 23.0736 14.3344 23.2045 14.4349 23.3354C14.5327 23.4644 14.6614 23.5874 14.8211 23.7045C14.9809 23.8215 15.1383 23.9082 15.2933 23.9646C15.4477 24.0164 15.5945 24.0422 15.7338 24.0419C15.8724 24.0371 15.9998 24.0057 16.116 23.9476C16.2341 23.8869 16.3342 23.8007 16.4161 23.6889C16.4981 23.5771 16.5496 23.4593 16.5706 23.3356C16.591 23.2074 16.5817 23.0777 16.5426 22.9468C16.5055 22.8132 16.438 22.6819 16.3402 22.553C16.2397 22.4221 16.1097 22.2981 15.9499 22.181ZM16.2551 21.7479C16.4734 21.9079 16.6502 22.0825 16.7856 22.2718C16.9184 22.4591 17.0097 22.6529 17.0594 22.853C17.1084 23.0485 17.1139 23.2448 17.0758 23.442C17.0377 23.6391 16.9533 23.8268 16.8226 24.0052C16.6938 24.1809 16.5425 24.3175 16.3687 24.4152C16.1922 24.5108 16.0033 24.5647 15.8021 24.5769C15.6009 24.589 15.391 24.56 15.1724 24.4898C14.9531 24.4149 14.7343 24.2975 14.516 24.1376C14.2977 23.9776 14.1222 23.8039 13.9894 23.6166C13.854 23.4273 13.7618 23.2349 13.7127 23.0394C13.663 22.8393 13.6572 22.6407 13.6953 22.4435C13.7334 22.2464 13.8168 22.06 13.9456 21.8843C14.0763 21.706 14.2299 21.5689 14.4064 21.4733C14.5802 21.3756 14.7678 21.3208 14.969 21.3086C15.1702 21.2965 15.3804 21.3279 15.5998 21.4027C15.8184 21.4729 16.0368 21.588 16.2551 21.7479ZM19.3021 17.8311C19.2459 17.797 19.1829 17.76 19.1131 17.7202C19.0432 17.6804 18.9734 17.6407 18.9035 17.6009C18.8362 17.559 18.7732 17.522 18.7145 17.49C18.6562 17.4533 18.6113 17.4246 18.58 17.4038C18.5964 17.4376 18.6189 17.4859 18.6474 17.5486C18.6738 17.6089 18.7033 17.6752 18.7358 17.7475C18.7662 17.8174 18.7975 17.8908 18.8298 17.9678C18.8645 18.0427 18.8938 18.1113 18.9177 18.1737L19.2303 18.9525L20.0354 18.2488L19.3021 17.8311ZM21.2217 18.9213L20.4609 18.4949L19.4173 19.4071L19.742 20.2148L19.3357 20.57L17.9942 17.1399L18.408 16.7782L21.6391 18.5564L21.2217 18.9213ZM24.9375 14.1721C24.8509 14.0126 24.7534 13.8778 24.6448 13.7677C24.5347 13.6547 24.4116 13.5732 24.2755 13.5231C24.1424 13.4715 23.9964 13.455 23.8375 13.4736C23.6815 13.4906 23.5136 13.5479 23.3338 13.6455L22.9596 13.8486L24.1307 16.0068L24.5049 15.8037C24.6847 15.7061 24.8243 15.5966 24.9236 15.4751C25.0258 15.3521 25.0915 15.2206 25.1208 15.0808C25.153 14.9395 25.1525 14.7933 25.1194 14.6423C25.0847 14.4884 25.0241 14.3317 24.9375 14.1721ZM25.4031 13.9195C25.5495 14.1893 25.634 14.4419 25.6567 14.6774C25.6822 14.9114 25.6607 15.1277 25.592 15.3264C25.5218 15.5222 25.4125 15.698 25.2641 15.8536C25.1187 16.0076 24.9459 16.1389 24.7457 16.2475L23.9146 16.6985L22.2619 13.6527L23.0929 13.2017C23.296 13.0915 23.5032 13.0167 23.7145 12.9771C23.9287 12.9359 24.1364 12.9415 24.3375 12.9938C24.5371 13.0433 24.728 13.1425 24.9102 13.2914C25.0924 13.4404 25.2567 13.6497 25.4031 13.9195ZM34.3617 11.6339C34.4181 11.9858 34.3486 12.2711 34.153 12.4896C33.9569 12.7049 33.6568 12.845 33.2527 12.9098C33.1322 12.9291 33.0095 12.9354 32.8847 12.9287C32.76 12.922 32.6383 12.9031 32.5197 12.872C32.4043 12.8403 32.2955 12.7976 32.1933 12.7438C32.0905 12.6868 32.0028 12.619 31.93 12.5404L32.2677 12.1453C32.3934 12.2621 32.5365 12.3411 32.6968 12.3823C32.8566 12.4201 33.0148 12.4265 33.1712 12.4014C33.4449 12.3575 33.6293 12.2778 33.7244 12.1623C33.8223 12.043 33.8571 11.8953 33.8289 11.7194C33.8007 11.5434 33.7214 11.4241 33.591 11.3614C33.4601 11.2955 33.305 11.2769 33.1258 11.3057L32.8081 11.3567L32.7281 10.8581L33.0409 10.8079C33.2006 10.7823 33.3138 10.7173 33.3807 10.613C33.4475 10.5087 33.4705 10.3914 33.4496 10.261C33.4417 10.2122 33.4236 10.1616 33.3951 10.1093C33.3667 10.0571 33.3244 10.012 33.2682 9.97426C33.212 9.93648 33.1392 9.90972 33.0497 9.89398C32.963 9.87446 32.8562 9.8749 32.7291 9.89528C32.5922 9.91724 32.4728 9.9648 32.3709 10.038C32.2723 10.1106 32.1838 10.205 32.1055 10.3212L31.6662 10.0206C31.7888 9.84723 31.9302 9.70756 32.0903 9.60165C32.2532 9.49196 32.4422 9.41986 32.6573 9.38536C32.817 9.35975 32.9719 9.35662 33.1221 9.37599C33.2717 9.39209 33.405 9.43088 33.5218 9.49236C33.6386 9.55385 33.7374 9.63828 33.8181 9.74566C33.8983 9.84978 33.9505 9.97679 33.9745 10.1267C34.0074 10.332 33.9923 10.4982 33.9291 10.6253C33.8692 10.7519 33.7858 10.8572 33.679 10.9412C33.8492 10.9607 33.997 11.0272 34.1221 11.1409C34.2473 11.2545 34.3272 11.4188 34.3617 11.6339ZM39.5621 11.2542C39.5713 11.0465 39.5088 10.8918 39.3745 10.79C39.2404 10.685 39.0497 10.627 38.8024 10.616C38.5486 10.6048 38.3468 10.6471 38.1972 10.7429C38.0478 10.8353 37.9685 10.9838 37.9595 11.1882C37.9557 11.2739 37.9686 11.3555 37.9982 11.4327C38.0278 11.51 38.0743 11.5798 38.1376 11.6421C38.2044 11.7012 38.2864 11.7511 38.3837 11.7917C38.4812 11.8291 38.5942 11.8506 38.7228 11.8563C38.9865 11.868 39.1901 11.8208 39.3336 11.7148C39.4772 11.6056 39.5533 11.452 39.5621 11.2542ZM40.0868 11.2675C40.0785 11.4555 40.0365 11.6204 39.9608 11.7624C39.8851 11.9044 39.7842 12.0206 39.658 12.1108C39.5318 12.201 39.3851 12.2672 39.2181 12.3093C39.051 12.3515 38.8719 12.3683 38.6807 12.3599C38.4993 12.3518 38.3306 12.3196 38.1745 12.2631C38.0186 12.2034 37.8838 12.1148 37.77 11.9975C37.6596 11.8803 37.5736 11.7327 37.5121 11.5549C37.4539 11.3773 37.4302 11.1664 37.441 10.9225C37.4477 10.7708 37.4696 10.6132 37.5066 10.4496C37.5435 10.2861 37.5985 10.1267 37.6714 9.97132C37.7477 9.81613 37.8434 9.6684 37.9586 9.52815C38.0772 9.38803 38.218 9.26543 38.3813 9.16034C38.5445 9.05524 38.7331 8.97274 38.9472 8.91284C39.1646 8.85309 39.4103 8.82432 39.6844 8.82655L39.6627 9.31617C39.2631 9.31499 38.9256 9.40081 38.6504 9.57363C38.3784 9.74659 38.1784 10.0119 38.0502 10.3697C38.1765 10.2794 38.3081 10.2159 38.4452 10.179C38.5857 10.139 38.7615 10.1236 38.9725 10.133C39.1307 10.14 39.2781 10.1696 39.4145 10.2219C39.5544 10.2711 39.6751 10.3425 39.7767 10.4362C39.8783 10.5299 39.9574 10.6457 40.014 10.7836C40.0707 10.9216 40.0949 11.0829 40.0868 11.2675ZM45.3511 11.4213C45.3964 11.2455 45.4225 11.0784 45.4292 10.92C45.44 10.7592 45.4262 10.6142 45.388 10.485C45.3529 10.3567 45.2908 10.247 45.2019 10.1559C45.1161 10.0656 44.9997 10.0015 44.8527 9.9636C44.7057 9.9257 44.5728 9.92553 44.454 9.96309C44.3361 9.99745 44.2292 10.0619 44.1332 10.1565C44.0413 10.2486 43.9612 10.3677 43.8929 10.5137C43.8254 10.6565 43.769 10.8158 43.7237 10.9916C43.6784 11.1673 43.6503 11.3356 43.6396 11.4964C43.6328 11.6549 43.647 11.7983 43.682 11.9266C43.7203 12.0558 43.7824 12.1655 43.8682 12.2558C43.9571 12.3469 44.0751 12.4114 44.2221 12.4493C44.3692 12.4871 44.5016 12.4889 44.6195 12.4546C44.7383 12.417 44.8436 12.3521 44.9355 12.2599C45.0315 12.1654 45.1132 12.0467 45.1807 11.9039C45.249 11.7579 45.3058 11.5971 45.3511 11.4213ZM45.8617 11.5427C45.7958 11.7984 45.7065 12.0258 45.5938 12.2251C45.4819 12.4212 45.3502 12.5816 45.1988 12.7061C45.0474 12.8307 44.8775 12.9147 44.6891 12.9582C44.5047 12.9992 44.3038 12.9918 44.0865 12.9357C43.8692 12.8797 43.6882 12.7888 43.5434 12.6628C43.4026 12.5345 43.2957 12.3808 43.2226 12.2018C43.1534 12.0204 43.1173 11.8168 43.1142 11.5911C43.1142 11.3661 43.1472 11.1258 43.2131 10.8702C43.2782 10.6177 43.3667 10.3934 43.4785 10.1973C43.5913 9.99801 43.7233 9.83608 43.8747 9.71151C44.0261 9.58694 44.1944 9.50252 44.3797 9.45825C44.5681 9.4148 44.771 9.42108 44.9883 9.4771C45.2056 9.53312 45.3846 9.62528 45.5254 9.75359C45.6702 9.87952 45.7771 10.0332 45.8462 10.2146C45.9193 10.3936 45.9555 10.5972 45.9546 10.8253C45.9578 11.0511 45.9268 11.2902 45.8617 11.5427ZM50.5577 12.3223C50.5892 12.2569 50.6052 12.1895 50.6057 12.1201C50.6106 12.0492 50.6015 11.9807 50.5785 11.9146C50.5584 11.8499 50.5243 11.7913 50.4763 11.7389C50.4328 11.6849 50.3768 11.6414 50.3084 11.6084C50.24 11.5755 50.1697 11.558 50.0973 11.5561C50.0294 11.5526 49.9624 11.5624 49.8963 11.5855C49.8331 11.61 49.7739 11.6455 49.7184 11.6921C49.6674 11.7371 49.6261 11.7923 49.5946 11.8577C49.5616 11.9261 49.5427 11.9957 49.5378 12.0666C49.5358 12.139 49.5449 12.2075 49.565 12.2722C49.5881 12.3383 49.6214 12.3983 49.665 12.4523C49.713 12.5048 49.7712 12.5475 49.8395 12.5805C49.9079 12.6134 49.9761 12.6317 50.044 12.6351C50.1164 12.637 50.1841 12.6258 50.2472 12.6012C50.3133 12.5782 50.3726 12.5426 50.4251 12.4946C50.4805 12.4481 50.5247 12.3906 50.5577 12.3223ZM50.959 12.5158C50.8988 12.6407 50.8198 12.7474 50.7222 12.8358C50.626 12.9213 50.5184 12.9849 50.3994 13.0264C50.2804 13.068 50.1567 13.0852 50.0282 13.0782C49.8997 13.0712 49.773 13.0375 49.6481 12.9773C49.5233 12.9171 49.4181 12.8389 49.3326 12.7427C49.2471 12.6465 49.1836 12.5389 49.142 12.4199C49.1034 12.3023 49.0862 12.1786 49.0902 12.0486C49.0987 11.9172 49.133 11.789 49.1933 11.6641C49.2521 11.5423 49.3296 11.4386 49.4258 11.3531C49.5249 11.269 49.6318 11.207 49.7464 11.1669C49.8654 11.1254 49.9891 11.1081 50.1176 11.1152C50.2476 11.1192 50.375 11.1514 50.4998 11.2116C50.6247 11.2718 50.7291 11.3515 50.8132 11.4507C50.8987 11.5469 50.9622 11.6545 51.0038 11.7735C51.0468 11.8895 51.0647 12.0117 51.0577 12.1402C51.0507 12.2688 51.0178 12.394 50.959 12.5158ZM56.4961 19.3123L56.1061 18.9252L57.6939 15.6184L58.0944 16.016L57.0517 18.0921C57.0286 18.1389 57.0019 18.1915 56.9718 18.25C56.944 18.3061 56.915 18.361 56.8849 18.4148C56.8571 18.4709 56.8293 18.5223 56.8014 18.5691C56.7783 18.6159 56.7586 18.6521 56.7423 18.6779C56.7679 18.6614 56.8029 18.6403 56.8471 18.6145C56.896 18.5886 56.9473 18.5604 57.0008 18.5299C57.0567 18.5017 57.1138 18.4723 57.172 18.4418C57.2303 18.4112 57.2827 18.3842 57.3293 18.3607L59.3872 17.2996L59.7807 17.6902L56.4961 19.3123ZM59.3871 22.2996L62.2211 20.3055L62.5202 20.7306L59.6862 22.7247L59.3871 22.2996ZM61.4608 25.3785L64.59 23.8895L65.5493 25.9055L65.0934 26.1225L64.3574 24.5758L63.584 24.9438L64.0116 25.8423L63.5556 26.0593L63.1281 25.1608L62.1402 25.6309L62.9081 27.2446L62.4521 27.4616L61.4608 25.3785ZM64.2671 33.0066L64.1536 32.4942L66.2216 31.4834C66.2491 31.4706 66.2828 31.4547 66.3226 31.4357C66.3655 31.4161 66.4069 31.3968 66.4466 31.3778C66.4896 31.3582 66.5293 31.3392 66.5659 31.321C66.6031 31.306 66.631 31.2947 66.6497 31.2872C66.6296 31.2883 66.5992 31.2883 66.5584 31.2872C66.5183 31.2893 66.4746 31.2905 66.4274 31.2908C66.3833 31.2904 66.3377 31.2904 66.2904 31.2907C66.2464 31.2903 66.2092 31.2901 66.1787 31.2901L63.872 31.2231L63.7607 30.7204L66.9909 29.2798L67.1044 29.7921L65.058 30.6713C65.0329 30.6803 65.0018 30.6922 64.9645 30.7072C64.928 30.7255 64.8895 30.7424 64.8491 30.7582C64.8093 30.7771 64.7692 30.7944 64.7287 30.8102C64.6915 30.8252 64.6587 30.8375 64.6305 30.8472C64.6602 30.844 64.6951 30.8413 64.7352 30.8392C64.776 30.8403 64.8184 30.841 64.8624 30.8414C64.9065 30.8418 64.9485 30.8409 64.9886 30.8388C65.0294 30.8399 65.0634 30.8408 65.0906 30.8416L67.3517 30.9086L67.4481 31.3436L65.3806 32.3796C65.3384 32.4025 65.2804 32.4305 65.2066 32.4638C65.1328 32.497 65.0664 32.5253 65.0073 32.5485C65.0746 32.5471 65.1484 32.5443 65.2286 32.54C65.312 32.5351 65.3753 32.5312 65.4187 32.5284L67.6943 32.4553L67.8035 32.9483L64.2671 33.0066ZM66.6349 41.7727C66.5302 41.7592 66.4362 41.7272 66.3528 41.6765C66.2691 41.6292 66.1972 41.5667 66.1373 41.4891C66.0803 41.4153 66.038 41.33 66.0105 41.2333C65.9858 41.1403 65.98 41.043 65.993 40.9415C66.0065 40.8368 66.0369 40.7425 66.0843 40.6588C66.1349 40.5754 66.1974 40.5036 66.2717 40.4433C66.3488 40.3866 66.4341 40.3443 66.5275 40.3164C66.6205 40.2918 66.7194 40.2862 66.8242 40.2996C66.9256 40.3127 67.0199 40.3431 67.1069 40.3908C67.1935 40.4419 67.2654 40.5044 67.3224 40.5782C67.3823 40.6558 67.4263 40.7413 67.4542 40.8347C67.4821 40.9282 67.4894 41.0273 67.4759 41.132C67.4629 41.2335 67.431 41.3259 67.3804 41.4092C67.3293 41.4958 67.2652 41.5675 67.1881 41.6241C67.1138 41.6844 67.0285 41.7267 66.9322 41.751C66.8355 41.7785 66.7364 41.7857 66.6349 41.7727Z" fill="white"/>
<rect x="18.6079" y="18.6716" width="39.505" height="39.505" rx="19.7525" stroke="white" stroke-opacity="0.1" stroke-width="0.49505"/>
<path fill-rule="evenodd" clip-rule="evenodd" d="M33.085 32.379C33.0851 31.5988 33.9392 31.1196 34.6055 31.5255L45.1846 37.9718C45.8238 38.3615 45.8237 39.29 45.1846 39.6798L34.6055 46.1271C33.9392 46.5327 33.085 46.0528 33.085 45.2726V32.379Z" fill="white"/>
</svg>
