<svg width="84" height="44" viewBox="0 0 84 44" fill="none" xmlns="http://www.w3.org/2000/svg" shape-rendering="geometricPrecision">
<rect width="84" height="44" rx="22" fill="white"/>
<g opacity="0.5">
<path fill-rule="evenodd" clip-rule="evenodd" d="M27.7657 15.2278C28.0781 15.5315 28.0781 16.024 27.7657 16.3277L21.9314 22L27.7657 27.6723C28.0781 27.976 28.0781 28.4685 27.7657 28.7722C27.4533 29.0759 26.9467 29.0759 26.6343 28.7722L20.2343 22.55C19.9219 22.2462 19.9219 21.7538 20.2343 21.45L26.6343 15.2278C26.9467 14.9241 27.4533 14.9241 27.7657 15.2278Z" fill="#0F0F0F"/>
</g>
<path d="M42 0H62C74.1503 0 84 9.84974 84 22C84 34.1503 74.1503 44 62 44H42V0Z" fill="#F5F5F5"/>
<path fill-rule="evenodd" clip-rule="evenodd" d="M56.2343 15.2278C56.5467 14.9241 57.0533 14.9241 57.3657 15.2278L63.7657 21.45C64.0781 21.7538 64.0781 22.2462 63.7657 22.55L57.3657 28.7722C57.0533 29.0759 56.5467 29.0759 56.2343 28.7722C55.9219 28.4685 55.9219 27.976 56.2343 27.6723L62.0686 22L56.2343 16.3277C55.9219 16.024 55.9219 15.5315 56.2343 15.2278Z" fill="#0F0F0F"/>
</svg>
